<svg width="31" height="32" viewBox="0 0 31 32" fill="none" xmlns="http://www.w3.org/2000/svg">
<path d="M15.5 12.5H18.5V8H23V5H18.5V0.5H15.5V5H11V8H15.5V12.5ZM9.5 26C7.85 26 6.515 27.35 6.515 29C6.515 30.65 7.85 32 9.5 32C11.15 32 12.5 30.65 12.5 29C12.5 27.35 11.15 26 9.5 26ZM24.5 26C22.85 26 21.515 27.35 21.515 29C21.515 30.65 22.85 32 24.5 32C26.15 32 27.5 30.65 27.5 29C27.5 27.35 26.15 26 24.5 26ZM11.15 18.5H22.325C23.45 18.5 24.44 17.885 24.95 16.955L30.74 6.44L28.115 5L22.325 15.5H11.795L5.405 2H0.5V5H3.5L8.9 16.385L6.875 20.045C5.78 22.055 7.22 24.5 9.5 24.5H27.5V21.5H9.5L11.15 18.5Z" fill="white"/>
</svg>
