<svg width="36" height="36" viewBox="0 0 36 36" fill="none" xmlns="http://www.w3.org/2000/svg">
<path d="M6.5 27.5833C6.5 23.75 14.1667 21.6417 18 21.6417C21.8333 21.6417 29.5 23.75 29.5 27.5833V29.5H6.5V27.5833ZM23.75 12.25C23.75 13.775 23.1442 15.2375 22.0659 16.3159C20.9875 17.3942 19.525 18 18 18C16.475 18 15.0125 17.3942 13.9341 16.3159C12.8558 15.2375 12.25 13.775 12.25 12.25C12.25 10.725 12.8558 9.26247 13.9341 8.18414C15.0125 7.1058 16.475 6.5 18 6.5C19.525 6.5 20.9875 7.1058 22.0659 8.18414C23.1442 9.26247 23.75 10.725 23.75 12.25ZM0.75 4.58333V31.4167C0.75 32.4333 1.15387 33.4084 1.87276 34.1272C2.59165 34.8461 3.56667 35.25 4.58333 35.25H31.4167C32.4333 35.25 33.4084 34.8461 34.1272 34.1272C34.8461 33.4084 35.25 32.4333 35.25 31.4167V4.58333C35.25 3.56667 34.8461 2.59165 34.1272 1.87276C33.4084 1.15387 32.4333 0.75 31.4167 0.75H4.58333C3.56667 0.75 2.59165 1.15387 1.87276 1.87276C1.15387 2.59165 0.75 3.56667 0.75 4.58333V4.58333Z" fill="white"/>
</svg>
